<svg xmlns="http://www.w3.org/2000/svg" width="71.563" height="71.563" viewBox="0 0 71.563 71.563"><g transform="translate(-257.423 -251.456)"><ellipse cx="29.801" cy="29.801" rx="29.801" ry="29.801" transform="translate(257.423 264.974) rotate(-13.109)" fill="#3b3d3d" opacity="0.14"/><ellipse cx="29.801" cy="29.801" rx="29.801" ry="29.801" transform="translate(260.354 254.378)" fill="#feffff"/><ellipse cx="21.709" cy="21.709" rx="21.709" ry="21.709" transform="translate(268.446 262.469)" fill="#1e3674"/><path d="M333.691,35.4A21.737,21.737,0,0,1,303.2,65.891,21.728,21.728,0,1,0,333.691,35.4Z" transform="translate(-30.215 231.608)" fill="#271c68"/><path d="M22.446,67.489v1.683a.374.374,0,0,1-.374.374H.374A.374.374,0,0,1,0,69.173V67.489a.374.374,0,0,1,.374-.374h21.7A.374.374,0,0,1,22.446,67.489Zm0-1.5V64.87A1.87,1.87,0,0,0,20.575,63H1.87A1.87,1.87,0,0,0,0,64.87v1.122a.374.374,0,0,0,.374.374h21.7A.374.374,0,0,0,22.446,65.993ZM18.022,73.4a.377.377,0,0,0-.285.506,1.964,1.964,0,0,1,0,1.381.374.374,0,0,0,.273.5,1.216,1.216,0,1,0,.012-2.391ZM.374,70.295h21.7a.374.374,0,0,1,.374.374v7.014a1.87,1.87,0,0,1-1.87,1.87H1.87A1.87,1.87,0,0,1,0,77.683V70.669A.374.374,0,0,1,.374,70.295Zm6.547,5.471a.374.374,0,0,0-.374-.374H3.414a.374.374,0,0,0,0,.748H6.547A.374.374,0,0,0,6.921,75.766Zm0-2.338a.374.374,0,0,0-.374-.374H3.414a.374.374,0,1,0,0,.748H6.547A.374.374,0,0,0,6.921,73.428ZM20.2,74.6a1.966,1.966,0,0,0-3.133-1.577,1.963,1.963,0,1,0,0,3.154A1.966,1.966,0,0,0,20.2,74.6Z" transform="translate(278.932 214.184)" fill="#fff"/></g></svg>