<svg xmlns="http://www.w3.org/2000/svg" width="109.298" height="109.212" viewBox="0 0 109.298 109.212"><g transform="translate(-15.373 -145.166)"><path d="M144.294,127.2h0a40.5,40.5,0,0,1-57.233,0L52.524,92.658a19.238,19.238,0,0,1,0-27.334l29.8-29.8a19.238,19.238,0,0,1,27.334,0L144.2,70.061A40.291,40.291,0,0,1,144.294,127.2Z" transform="translate(-31.452 115.341)" fill="#1e3674"/><path d="M115.774,132.028a33.144,33.144,0,0,1-23.584-9.769L57.652,87.722A12.152,12.152,0,0,1,54.1,79.038a12.5,12.5,0,0,1,3.552-8.684l29.9-29.7A12.152,12.152,0,0,1,96.235,37.1a12.5,12.5,0,0,1,8.684,3.552L139.456,75.19a33.352,33.352,0,0,1,0,47.168A33.869,33.869,0,0,1,115.774,132.028Z" transform="translate(-31.548 115.245)" fill="#feffff"/><path d="M120.3,121.65a17.968,17.968,0,0,1-13.025-5.427l-1.381-1.381a2.862,2.862,0,0,1,0-3.947l22.005-22.005a2.862,2.862,0,0,1,3.947,0l1.382,1.381A18.369,18.369,0,0,1,138.65,103.3a17.968,17.968,0,0,1-5.427,13.025A18.288,18.288,0,0,1,120.3,121.65Z" transform="translate(-32.222 114.57)" fill="#1e3674"/></g></svg>