<?xml version="1.0" encoding="iso-8859-1"?>
<!-- Generator: Adobe Illustrator 21.0.0, SVG Export Plug-In . SVG Version: 6.00 Build 0)  -->
<svg xmlns="http://www.w3.org/2000/svg" xmlns:xlink="http://www.w3.org/1999/xlink" version="1.1" id="Capa_1" x="0px" y="0px" viewBox="0 0 512 512" style="enable-background:new 0 0 512 512;" xml:space="preserve" width="512" height="512">
<g>
	<path d="M452.138,289.644V52.372h-58.996V16.919h-30.009v35.453H333.12V16.919h-30.009v35.453h-30.013V16.919h-30.009v35.453   h-30.013V16.919h-30.009v35.453h-30.012V16.919h-30.009v35.453H93.032V16.919H63.023v35.453H0v412.181h328.16   c19.531,18.887,46.11,30.528,75.36,30.528c59.816,0,108.48-48.664,108.48-108.481C512,344.254,487.607,307.503,452.138,289.644z    M63.023,82.381v32.063h30.009V82.381h30.013v32.063h30.009V82.381h30.012v32.063h30.009V82.381h30.013v32.063h30.009V82.381   h30.013v32.063h30.009V82.381h30.013v32.063h30.009V82.381h28.986v60.568H30.009V82.381H63.023z M30.009,172.959h392.12v106.764   c-6.048-1.05-12.265-1.603-18.609-1.603c-4.988,0-9.896,0.346-14.707,1.001v-77.499h-87.407v87.407h54.732   c-14.789,7.21-27.706,17.684-37.806,30.48H66.067v30.009h235.502c-3.232,8.859-5.336,18.255-6.148,28.012H66.067v30.009h231.007   c1.866,9.502,4.976,18.562,9.153,27.005H30.009V172.959z M358.804,259.019h-27.388v-27.388h27.388V259.019z M403.52,465.072   c-43.27,0-78.472-35.202-78.472-78.472c0-43.269,35.202-78.471,78.472-78.471c43.269,0,78.471,35.202,78.471,78.471   C481.991,429.87,446.789,465.072,403.52,465.072z"/>
	<polygon points="389.113,386.85 368.25,365.987 347.031,387.207 389.113,429.289 454.78,363.621 433.561,342.402  "/>
	<path d="M153.974,201.622H66.567v87.407h87.407V201.622z M123.965,259.019H96.576v-27.388h27.388V259.019z"/>
	<path d="M271.393,201.622h-87.407v87.407h87.407V201.622z M241.384,259.019h-27.388v-27.388h27.388V259.019z"/>
</g>















</svg>
