<?xml version="1.0" encoding="UTF-8" standalone="no"?>
<!-- Created with Inkscape (http://www.inkscape.org/) -->

<svg
   version="1.1"
   id="svg2199"
   xml:space="preserve"
   width="682.66669"
   height="682.66669"
   viewBox="0 0 682.66669 682.66669"
   xmlns="http://www.w3.org/2000/svg"
   xmlns:svg="http://www.w3.org/2000/svg"><defs
     id="defs2203"><clipPath
       clipPathUnits="userSpaceOnUse"
       id="clipPath2213"><path
         d="M 0,512 H 512 V 0 H 0 Z"
         id="path2211" /></clipPath></defs><g
     id="g2205"
     transform="matrix(1.3333333,0,0,-1.3333333,0,682.66667)"><g
       id="g2207"><g
         id="g2209"
         clip-path="url(#clipPath2213)"><g
           id="g2215"
           transform="translate(255,151)"><path
             d="m 0,0 c 0,-66.274 -53.726,-120 -120,-120 -66.274,0 -120,53.726 -120,120 0,66.274 53.726,120 120,120 C -53.726,120 0,66.274 0,0 Z"
             style="fill:none;stroke:#000000;stroke-width:30;stroke-linecap:butt;stroke-linejoin:miter;stroke-miterlimit:10;stroke-dasharray:none;stroke-opacity:1"
             id="path2217" /></g><g
           id="g2219"
           transform="translate(135,226)"><path
             d="M 0,0 V -75 H 45"
             style="fill:none;stroke:#000000;stroke-width:30;stroke-linecap:butt;stroke-linejoin:miter;stroke-miterlimit:10;stroke-dasharray:none;stroke-opacity:1"
             id="path2221" /></g><g
           id="g2223"
           transform="translate(77,254.9463)"><path
             d="m 0,0 v 166.054 h 420 v -330 H 163.946"
             style="fill:none;stroke:#000000;stroke-width:30;stroke-linecap:butt;stroke-linejoin:miter;stroke-miterlimit:10;stroke-dasharray:none;stroke-opacity:1"
             id="path2225" /></g><g
           id="g2227"
           transform="translate(77,331)"><path
             d="M 0,0 H 420"
             style="fill:none;stroke:#000000;stroke-width:30;stroke-linecap:butt;stroke-linejoin:miter;stroke-miterlimit:10;stroke-dasharray:none;stroke-opacity:1"
             id="path2229" /></g><g
           id="g2231"
           transform="translate(137,376)"><path
             d="m 0,0 v 75 c 0,16.568 13.432,30 30,30 16.568,0 30,-13.432 30,-30 V 45"
             style="fill:none;stroke:#000000;stroke-width:30;stroke-linecap:butt;stroke-linejoin:miter;stroke-miterlimit:10;stroke-dasharray:none;stroke-opacity:1"
             id="path2233" /></g><g
           id="g2235"
           transform="translate(257,376)"><path
             d="m 0,0 v 75 c 0,16.568 13.432,30 30,30 16.568,0 30,-13.432 30,-30 V 45"
             style="fill:none;stroke:#000000;stroke-width:30;stroke-linecap:butt;stroke-linejoin:miter;stroke-miterlimit:10;stroke-dasharray:none;stroke-opacity:1"
             id="path2237" /></g><g
           id="g2239"
           transform="translate(377,376)"><path
             d="m 0,0 v 75 c 0,16.568 13.432,30 30,30 16.568,0 30,-13.432 30,-30 V 45"
             style="fill:none;stroke:#000000;stroke-width:30;stroke-linecap:butt;stroke-linejoin:miter;stroke-miterlimit:10;stroke-dasharray:none;stroke-opacity:1"
             id="path2241" /></g><g
           id="g2243"
           transform="translate(302,271)"><path
             d="M 0,0 H 60"
             style="fill:none;stroke:#000000;stroke-width:30;stroke-linecap:butt;stroke-linejoin:miter;stroke-miterlimit:10;stroke-dasharray:none;stroke-opacity:1"
             id="path2245" /></g><g
           id="g2247"
           transform="translate(392,271)"><path
             d="M 0,0 H 60"
             style="fill:none;stroke:#000000;stroke-width:30;stroke-linecap:butt;stroke-linejoin:miter;stroke-miterlimit:10;stroke-dasharray:none;stroke-opacity:1"
             id="path2249" /></g><g
           id="g2251"
           transform="translate(392,211)"><path
             d="M 0,0 H 60"
             style="fill:none;stroke:#000000;stroke-width:30;stroke-linecap:butt;stroke-linejoin:miter;stroke-miterlimit:10;stroke-dasharray:none;stroke-opacity:1"
             id="path2253" /></g><g
           id="g2255"
           transform="translate(392,151)"><path
             d="M 0,0 H 60"
             style="fill:none;stroke:#000000;stroke-width:30;stroke-linecap:butt;stroke-linejoin:miter;stroke-miterlimit:10;stroke-dasharray:none;stroke-opacity:1"
             id="path2257" /></g><g
           id="g2259"
           transform="translate(302,151)"><path
             d="M 0,0 H 60"
             style="fill:none;stroke:#000000;stroke-width:30;stroke-linecap:butt;stroke-linejoin:miter;stroke-miterlimit:10;stroke-dasharray:none;stroke-opacity:1"
             id="path2261" /></g><g
           id="g2263"
           transform="translate(302,211)"><path
             d="M 0,0 H 60"
             style="fill:none;stroke:#000000;stroke-width:30;stroke-linecap:butt;stroke-linejoin:miter;stroke-miterlimit:10;stroke-dasharray:none;stroke-opacity:1"
             id="path2265" /></g></g></g></g></svg>
