<?xml version="1.0" encoding="iso-8859-1"?>
<!-- Generator: Adobe Illustrator 19.0.0, SVG Export Plug-In . SVG Version: 6.00 Build 0)  -->
<svg version="1.1" id="Capa_1" xmlns="http://www.w3.org/2000/svg" xmlns:xlink="http://www.w3.org/1999/xlink" x="0px" y="0px"
	 viewBox="0 0 512 512" style="enable-background:new 0 0 512 512;" xml:space="preserve">
<g>
	<g>
		<polygon points="271.421,249.683 271,145.921 241,146.043 241.472,262.317 351.261,370.164 372.284,348.763 		"/>
	</g>
</g>
<g>
	<g>
		<path d="M437.02,74.98C388.667,26.629,324.38,0,256,0S123.333,26.629,74.98,74.981C26.629,123.333,0,187.621,0,256
			s26.629,132.667,74.981,181.019S187.62,512,256,512s132.667-26.628,181.02-74.98C485.371,388.667,512,324.379,512,256
			C512,187.62,485.371,123.333,437.02,74.98z M426.058,404.845l-28.313-28.313l-21.213,21.214l28.313,28.312
			c-37.468,32.887-84.097,52.201-133.845,55.44v-40.04h-30v40.04c-49.749-3.239-96.377-22.553-133.845-55.441l28.312-28.312
			l-21.213-21.213l-28.312,28.312C53.055,367.376,33.741,320.748,30.502,271h40.04v-30h-40.04
			c3.239-49.748,22.553-96.377,55.441-133.845l28.312,28.312l21.213-21.213l-28.312-28.312
			C144.623,53.055,191.251,33.741,241,30.502v37.692h30V30.502c49.748,3.239,96.377,22.553,133.845,55.44l-26.653,26.653
			l21.213,21.213l26.653-26.653c32.888,37.468,52.202,84.096,55.44,133.845h-40.039v30h40.039
			C478.26,320.748,458.946,367.377,426.058,404.845z"/>
	</g>
</g>
<g>
</g>
<g>
</g>
<g>
</g>
<g>
</g>
<g>
</g>
<g>
</g>
<g>
</g>
<g>
</g>
<g>
</g>
<g>
</g>
<g>
</g>
<g>
</g>
<g>
</g>
<g>
</g>
<g>
</g>
</svg>
