<svg id="Capa_1" enable-background="new 0 0 512 512" height="512" viewBox="0 0 512 512" width="512" xmlns="http://www.w3.org/2000/svg"><g><path d="m506.031 185.024-55.031-41.499v-67.525c0-8.284-6.716-15-15-15h-94.197l-76.763-57.97c-5.35-4.04-12.73-4.04-18.08 0l-76.762 57.97h-94.198c-8.284 0-15 6.716-15 15v67.524l-55.031 41.5c-3.759 2.834-5.969 7.269-5.969 11.976v300c0 8.284 6.716 15 15 15h482c8.284 0 15-6.716 15-15v-300c0-4.707-2.21-9.142-5.969-11.976zm-24.031 19.452v36.524h-31v-59.901zm-226-170.679 36.022 27.203h-72.043zm165 57.203v169.153l-165 126.923-165-126.923v-169.153zm-360 90.099v59.901h-31v-36.524zm-31 300.901v-211h25.898l190.956 146.889c5.389 4.147 12.9 4.149 18.291 0 7.011-5.37 190.821-146.786 190.956-146.889h25.899v211z"/><path d="m256 331c8.284 0 15-6.716 15-15s-6.716-15-15-15c-41.328 0-74.95-33.622-74.95-75.025 0-41.341 33.634-74.975 74.976-74.975 41.34 0 74.974 33.634 74.974 74.975v40.025c0 2.757-2.243 5-5 5h-20c-2.757 0-5-2.243-5-5v-40c0-24.813-20.187-45-45-45s-45 20.187-45 45 20.187 45 45 45h15.356c2.434 16.939 17.042 30 34.644 30h20c19.299 0 35-15.701 35-35v-40.025c0-57.883-47.092-104.975-104.974-104.975-57.884 0-104.976 47.092-104.976 105.05 0 57.87 47.08 104.95 104.95 104.95zm15-90h-15c-8.271 0-15-6.729-15-15s6.729-15 15-15 15 6.729 15 15z"/></g></svg>