<svg xmlns="http://www.w3.org/2000/svg" width="38.874" height="28.67" viewBox="0 0 38.874 28.67"><path d="M38.874,70.775V73.69a.648.648,0,0,1-.648.648H.648A.648.648,0,0,1,0,73.69V70.775a.648.648,0,0,1,.648-.648H38.226A.648.648,0,0,1,38.874,70.775Zm0-2.592V66.24A3.24,3.24,0,0,0,35.635,63H3.24A3.24,3.24,0,0,0,0,66.24v1.944a.648.648,0,0,0,.648.648H38.226A.648.648,0,0,0,38.874,68.183Zm-7.661,12.83a.652.652,0,0,0-.493.877,3.4,3.4,0,0,1,0,2.392.648.648,0,0,0,.473.873,2.106,2.106,0,1,0,.02-4.141ZM.648,75.634H38.226a.648.648,0,0,1,.648.648V88.43a3.24,3.24,0,0,1-3.24,3.24H3.24A3.24,3.24,0,0,1,0,88.43V76.282A.648.648,0,0,1,.648,75.634ZM11.986,85.11a.648.648,0,0,0-.648-.648H5.912a.648.648,0,0,0,0,1.3h5.426A.648.648,0,0,0,11.986,85.11Zm0-4.049a.648.648,0,0,0-.648-.648H5.912a.648.648,0,1,0,0,1.3h5.426A.648.648,0,0,0,11.986,81.06Zm23,2.025a3.4,3.4,0,0,0-5.426-2.731,3.4,3.4,0,1,0,0,5.463A3.4,3.4,0,0,0,34.987,83.085Z" transform="translate(0 -63)" fill="#bdbdbd"/></svg>