<?xml version="1.0" encoding="UTF-8" standalone="no"?>
<!-- Created with Inkscape (http://www.inkscape.org/) -->

<svg
   version="1.1"
   id="svg1788"
   xml:space="preserve"
   width="682.66669"
   height="682.66669"
   viewBox="0 0 682.66669 682.66669"
   xmlns="http://www.w3.org/2000/svg"
   xmlns:svg="http://www.w3.org/2000/svg"><defs
     id="defs1792"><clipPath
       clipPathUnits="userSpaceOnUse"
       id="clipPath1802"><path
         d="M 0,512 H 512 V 0 H 0 Z"
         id="path1800" /></clipPath><clipPath
       clipPathUnits="userSpaceOnUse"
       id="clipPath1824"><path
         d="M 0,512 H 512 V 0 H 0 Z"
         id="path1822" /></clipPath><clipPath
       clipPathUnits="userSpaceOnUse"
       id="clipPath1860"><path
         d="M 0,512 H 512 V 0 H 0 Z"
         id="path1858" /></clipPath></defs><g
     id="g1794"
     transform="matrix(1.3333333,0,0,-1.3333333,0,682.66667)"><g
       id="g1796"><g
         id="g1798"
         clip-path="url(#clipPath1802)"><path
           d="M 15,46 H 497 V 406 H 15 Z"
           style="fill:none;stroke:#000000;stroke-width:30;stroke-linecap:butt;stroke-linejoin:miter;stroke-miterlimit:10;stroke-dasharray:none;stroke-opacity:1"
           id="path1804" /></g></g><g
       id="g1806"
       transform="translate(91,226)"><path
         d="M 0,0 H 90"
         style="fill:none;stroke:#000000;stroke-width:30;stroke-linecap:butt;stroke-linejoin:miter;stroke-miterlimit:10;stroke-dasharray:none;stroke-opacity:1"
         id="path1808" /></g><g
       id="g1810"
       transform="translate(211,226)"><path
         d="M 0,0 H 90"
         style="fill:none;stroke:#000000;stroke-width:30;stroke-linecap:butt;stroke-linejoin:miter;stroke-miterlimit:10;stroke-dasharray:none;stroke-opacity:1"
         id="path1812" /></g><g
       id="g1814"
       transform="translate(331,226)"><path
         d="M 0,0 H 90"
         style="fill:none;stroke:#000000;stroke-width:30;stroke-linecap:butt;stroke-linejoin:miter;stroke-miterlimit:10;stroke-dasharray:none;stroke-opacity:1"
         id="path1816" /></g><g
       id="g1818"><g
         id="g1820"
         clip-path="url(#clipPath1824)"><g
           id="g1826"
           transform="translate(15,286)"><path
             d="M 0,0 H 482"
             style="fill:none;stroke:#000000;stroke-width:30;stroke-linecap:butt;stroke-linejoin:miter;stroke-miterlimit:10;stroke-dasharray:none;stroke-opacity:1"
             id="path1828" /></g></g></g><g
       id="g1830"
       transform="translate(331,166)"><path
         d="M 0,0 H 90"
         style="fill:none;stroke:#000000;stroke-width:30;stroke-linecap:butt;stroke-linejoin:miter;stroke-miterlimit:10;stroke-dasharray:none;stroke-opacity:1"
         id="path1832" /></g><g
       id="g1834"
       transform="translate(211,166)"><path
         d="M 0,0 H 90"
         style="fill:none;stroke:#000000;stroke-width:30;stroke-linecap:butt;stroke-linejoin:miter;stroke-miterlimit:10;stroke-dasharray:none;stroke-opacity:1"
         id="path1836" /></g><g
       id="g1838"
       transform="translate(91,166)"><path
         d="M 0,0 H 90"
         style="fill:none;stroke:#000000;stroke-width:30;stroke-linecap:butt;stroke-linejoin:miter;stroke-miterlimit:10;stroke-dasharray:none;stroke-opacity:1"
         id="path1840" /></g><g
       id="g1842"
       transform="translate(91,106)"><path
         d="M 0,0 H 90"
         style="fill:none;stroke:#000000;stroke-width:30;stroke-linecap:butt;stroke-linejoin:miter;stroke-miterlimit:10;stroke-dasharray:none;stroke-opacity:1"
         id="path1844" /></g><g
       id="g1846"
       transform="translate(211,106)"><path
         d="M 0,0 H 90"
         style="fill:none;stroke:#000000;stroke-width:30;stroke-linecap:butt;stroke-linejoin:miter;stroke-miterlimit:10;stroke-dasharray:none;stroke-opacity:1"
         id="path1848" /></g><g
       id="g1850"
       transform="translate(331,106)"><path
         d="M 0,0 H 90"
         style="fill:none;stroke:#000000;stroke-width:30;stroke-linecap:butt;stroke-linejoin:miter;stroke-miterlimit:10;stroke-dasharray:none;stroke-opacity:1"
         id="path1852" /></g><g
       id="g1854"><g
         id="g1856"
         clip-path="url(#clipPath1860)"><g
           id="g1862"
           transform="translate(76,406)"><path
             d="M 0,0 C 0,33.137 13.432,60 30,60 46.568,60 60,33.137 60,0 60,-33.137 46.568,-60 30,-60"
             style="fill:none;stroke:#000000;stroke-width:30;stroke-linecap:butt;stroke-linejoin:miter;stroke-miterlimit:10;stroke-dasharray:none;stroke-opacity:1"
             id="path1864" /></g><g
           id="g1866"
           transform="translate(226,406)"><path
             d="M 0,0 C 0,33.137 13.432,60 30,60 46.568,60 60,33.137 60,0 60,-33.137 46.568,-60 30,-60"
             style="fill:none;stroke:#000000;stroke-width:30;stroke-linecap:butt;stroke-linejoin:miter;stroke-miterlimit:10;stroke-dasharray:none;stroke-opacity:1"
             id="path1868" /></g><g
           id="g1870"
           transform="translate(376,406)"><path
             d="M 0,0 C 0,33.137 13.432,60 30,60 46.568,60 60,33.137 60,0 60,-33.137 46.568,-60 30,-60"
             style="fill:none;stroke:#000000;stroke-width:30;stroke-linecap:butt;stroke-linejoin:miter;stroke-miterlimit:10;stroke-dasharray:none;stroke-opacity:1"
             id="path1872" /></g></g></g></g></svg>
