<?xml version="1.0" encoding="iso-8859-1"?>
<!-- Generator: Adobe Illustrator 19.0.0, SVG Export Plug-In . SVG Version: 6.00 Build 0)  -->
<svg version="1.1" id="Layer_1" xmlns="http://www.w3.org/2000/svg" xmlns:xlink="http://www.w3.org/1999/xlink" x="0px" y="0px"
	 viewBox="0 0 512 512" style="enable-background:new 0 0 512 512;" xml:space="preserve">
<g>
	<g>
		<path d="M437.02,74.981C388.667,26.629,324.38,0,256,0v30c124.617,0,226,101.383,226,226S380.617,482,256,482S30,380.617,30,256
			c0-58.327,21.949-113.277,61.936-155.426l21.549,21.549l-0.016-64.421l-64.414-0.008l21.66,21.66C25.066,127.174,0,189.659,0,256
			c0,68.38,26.629,132.667,74.98,181.019C123.333,485.371,187.62,512,256,512s132.667-26.629,181.02-74.981
			C485.371,388.667,512,324.38,512,256S485.371,123.333,437.02,74.981z"/>
	</g>
</g>
<g>
	<g>
		<path d="M209,0c-11.028,0-20,8.972-20,20s8.972,20,20,20s20-8.972,20-20S220.028,0,209,0z"/>
	</g>
</g>
<g>
	<g>
		<path d="M150,19c-11.028,0-20,8.972-20,20s8.972,20,20,20s20-8.972,20-20S161.028,19,150,19z"/>
	</g>
</g>
<g>
	<g>
		<path d="M280.233,267.03v-69.861h-18.216l-55.153,69.861v23.9h46.63v24.903h26.739V290.93h14.707v-23.9H280.233z M256.502,267.031
			h-23.064l23.064-29.749V267.031z"/>
	</g>
</g>
<g>
	<g>
		<polygon points="386.36,221.906 386.36,257.338 344.077,257.338 344.077,221.906 320.01,221.906 320.01,316 344.077,316 
			344.077,278.396 386.36,278.396 386.36,316 410.26,316 410.26,221.906 		"/>
	</g>
</g>
<g>
	<g>
		<path d="M139.343,291.934c0-21.6,50.808-19.6,50.808-58.83c0-21.77-12.985-37.103-41.113-37.103
			c-28.372,0-45.351,17.105-47.132,19.22l16.713,17.716c1.448-1.559,13.381-13.203,26.742-13.203
			c8.139,0,14.374,4.766,14.374,13.704c0,30.729-57.995,8.562-57.995,82.562h88.578v-24.066H139.343z"/>
	</g>
</g>
<g>
</g>
<g>
</g>
<g>
</g>
<g>
</g>
<g>
</g>
<g>
</g>
<g>
</g>
<g>
</g>
<g>
</g>
<g>
</g>
<g>
</g>
<g>
</g>
<g>
</g>
<g>
</g>
<g>
</g>
</svg>
