<svg xmlns="http://www.w3.org/2000/svg" width="31.67" height="31.67" viewBox="0 0 31.67 31.67"><g transform="translate(6.557)"><path d="M116.206,1.856h-2.783a1.856,1.856,0,0,0-3.711,0h-2.783a.983.983,0,0,0-.928.99v.928a1.856,1.856,0,0,0,1.856,1.856h7.423a1.856,1.856,0,0,0,1.856-1.856V2.845A.983.983,0,0,0,116.206,1.856Z" transform="translate(-106)" fill="#bdbdbd"/></g><g transform="translate(0 3.773)"><path d="M21.464,61H19.608a3.768,3.768,0,0,1-3.773,3.711H8.412A3.715,3.715,0,0,1,4.7,61H2.845A2.84,2.84,0,0,0,0,63.783V86.051A2.893,2.893,0,0,0,2.845,88.9H21.464a2.84,2.84,0,0,0,2.783-2.845V63.783A2.787,2.787,0,0,0,21.464,61ZM4.045,68.151a.928.928,0,0,1,1.312-1.312l1.2,1.2,1.2-1.2a.928.928,0,0,1,1.312,1.312l-1.2,1.2,1.2,1.2a.928.928,0,0,1-1.312,1.312l-1.2-1.2-1.2,1.2A.928.928,0,0,1,4.045,70.55l1.2-1.2Zm6.879,12.99L7.213,84.852a.927.927,0,0,1-1.312,0L4.045,83a.928.928,0,1,1,1.312-1.312l1.2,1.2,3.055-3.055a.928.928,0,0,1,1.312,1.312Zm0-6.495L7.213,78.357a.927.927,0,0,1-1.312,0L4.045,76.5a.928.928,0,1,1,1.312-1.312l1.2,1.2,3.055-3.055a.928.928,0,0,1,1.312,1.312Zm8.684,8.622H13.979a.928.928,0,0,1,0-1.856h5.629a.928.928,0,0,1,0,1.856Zm0-6.495H13.979a.928.928,0,0,1,0-1.856h5.629a.928.928,0,0,1,0,1.856Zm0-6.495H13.979a.928.928,0,1,1,0-1.856h5.629a.928.928,0,1,1,0,1.856Z" transform="translate(0 -61)" fill="#bdbdbd"/></g><g transform="translate(26.103 5.629)"><path d="M424.783,91A2.787,2.787,0,0,0,422,93.783v2.783h5.567V93.783A2.787,2.787,0,0,0,424.783,91Z" transform="translate(-422 -91)" fill="#bdbdbd"/></g><g transform="translate(26.103 13.051)"><path d="M422,369.789Z" transform="translate(-422 -359.967)" fill="#bdbdbd"/><path d="M422,211v9.822l.272-.272a3.557,3.557,0,0,1,5.023,0l.272.272V211Z" transform="translate(-422.001 -211)" fill="#bdbdbd"/></g><g transform="translate(26.625 23.417)"><path d="M433.91,379.081a1.7,1.7,0,0,0-2.4,0l-1.061,1.061,1.381,4.143a.927.927,0,0,0,1.76,0l1.381-4.143Z" transform="translate(-430.449 -378.585)" fill="#bdbdbd"/></g></svg>