<?xml version="1.0" encoding="UTF-8" standalone="no"?>
<!-- Created with Inkscape (http://www.inkscape.org/) -->

<svg
   version="1.1"
   id="svg2298"
   xml:space="preserve"
   width="682.66669"
   height="682.66669"
   viewBox="0 0 682.66669 682.66669"
   xmlns="http://www.w3.org/2000/svg"
   xmlns:svg="http://www.w3.org/2000/svg"><defs
     id="defs2302"><clipPath
       clipPathUnits="userSpaceOnUse"
       id="clipPath2336"><path
         d="M 0,512 H 512 V 0 H 0 Z"
         id="path2334" /></clipPath></defs><g
     id="g2304"
     transform="matrix(1.3333333,0,0,-1.3333333,0,682.66667)"><g
       id="g2306"
       transform="translate(90,347)"><path
         d="M 0,0 30,-30 90,30"
         style="fill:none;stroke:#000000;stroke-width:30;stroke-linecap:butt;stroke-linejoin:miter;stroke-miterlimit:10;stroke-dasharray:none;stroke-opacity:1"
         id="path2308" /></g><g
       id="g2310"
       transform="translate(90,257)"><path
         d="M 0,0 30,-30 90,30"
         style="fill:none;stroke:#000000;stroke-width:30;stroke-linecap:butt;stroke-linejoin:miter;stroke-miterlimit:10;stroke-dasharray:none;stroke-opacity:1"
         id="path2312" /></g><g
       id="g2314"
       transform="translate(90,167)"><path
         d="M 0,0 30,-30 90,30"
         style="fill:none;stroke:#000000;stroke-width:30;stroke-linecap:butt;stroke-linejoin:miter;stroke-miterlimit:10;stroke-dasharray:none;stroke-opacity:1"
         id="path2316" /></g><g
       id="g2318"
       transform="translate(210,347)"><path
         d="M 0,0 H 90"
         style="fill:none;stroke:#000000;stroke-width:30;stroke-linecap:butt;stroke-linejoin:miter;stroke-miterlimit:10;stroke-dasharray:none;stroke-opacity:1"
         id="path2320" /></g><g
       id="g2322"
       transform="translate(210,257)"><path
         d="M 0,0 H 90"
         style="fill:none;stroke:#000000;stroke-width:30;stroke-linecap:butt;stroke-linejoin:miter;stroke-miterlimit:10;stroke-dasharray:none;stroke-opacity:1"
         id="path2324" /></g><g
       id="g2326"
       transform="translate(392,180)"><path
         d="M 0,0 V -60 H 60"
         style="fill:none;stroke:#000000;stroke-width:30;stroke-linecap:butt;stroke-linejoin:miter;stroke-miterlimit:10;stroke-dasharray:none;stroke-opacity:1"
         id="path2328" /></g><g
       id="g2330"><g
         id="g2332"
         clip-path="url(#clipPath2336)"><g
           id="g2338"
           transform="translate(497,120)"><path
             d="m 0,0 c 0,57.891 -47.109,105 -105,105 -57.891,0 -105,-47.109 -105,-105 0,-57.891 47.109,-105 105,-105 57.891,0 105,47.109 105,105 z"
             style="fill:none;stroke:#000000;stroke-width:30;stroke-linecap:butt;stroke-linejoin:miter;stroke-miterlimit:10;stroke-dasharray:none;stroke-opacity:1"
             id="path2340" /></g><g
           id="g2342"
           transform="translate(285,77)"><path
             d="M 0,0 H -270 V 420 H 0 L 90,330 V 150"
             style="fill:none;stroke:#000000;stroke-width:30;stroke-linecap:butt;stroke-linejoin:miter;stroke-miterlimit:10;stroke-dasharray:none;stroke-opacity:1"
             id="path2344" /></g><g
           id="g2346"
           transform="translate(375,407)"><path
             d="M 0,0 H -90 V 90"
             style="fill:none;stroke:#000000;stroke-width:30;stroke-linecap:butt;stroke-linejoin:miter;stroke-miterlimit:10;stroke-dasharray:none;stroke-opacity:1"
             id="path2348" /></g><g
           id="g2350"
           transform="translate(150,437)"><path
             d="M 0,0 H 90"
             style="fill:none;stroke:#000000;stroke-width:30;stroke-linecap:butt;stroke-linejoin:miter;stroke-miterlimit:10;stroke-dasharray:none;stroke-opacity:1"
             id="path2352" /></g></g></g></g></svg>
