<?xml version="1.0" encoding="UTF-8"?>
<svg xmlns="http://www.w3.org/2000/svg" xmlns:xlink="http://www.w3.org/1999/xlink" version="1.1" id="Capa_1" x="0px" y="0px" viewBox="0 0 510 510" style="enable-background:new 0 0 510 510;" xml:space="preserve" width="512" height="512">
<g>
	<g>
		<path style="fill:none;stroke:#000000;stroke-width:30;stroke-miterlimit:10;" d="M390,15l-75,45V15H178.5&#10;&#9;&#9;&#9;C121.339,15,75,61.339,75,118.5V165h286.5C418.661,165,465,118.661,465,61.5V15H390z"/>
		<path id="XMLID_121_" style="fill:none;stroke:#000000;stroke-width:30;stroke-miterlimit:10;" d="M75,150v165&#10;&#9;&#9;&#9;c0,99.411,80.589,180,180,180h0c99.411,0,180-80.589,180-180V135"/>
		<path style="fill:none;stroke:#000000;stroke-width:30;stroke-miterlimit:10;" d="M210,240c0,16.569-13.432,30-30,30&#10;&#9;&#9;&#9;s-30-13.431-30-30"/>
		<path style="fill:none;stroke:#000000;stroke-width:30;stroke-miterlimit:10;" d="M360,240c0,16.569-13.431,30-30,30&#10;&#9;&#9;&#9;s-30-13.431-30-30"/>
		<path style="fill:none;stroke:#000000;stroke-width:30;stroke-miterlimit:10;" d="M300,367.125c0,24.853-20.147,45-45,45&#10;&#9;&#9;&#9;s-45-20.147-45-45"/>
		<line style="fill:none;stroke:#000000;stroke-width:30;stroke-miterlimit:10;" x1="255" y1="285" x2="255" y2="330"/>
		<path id="XMLID_120_" style="fill:none;stroke:#000000;stroke-width:30;stroke-miterlimit:10;" d="M457.5,285H435v-75h22.5&#10;&#9;&#9;&#9;c20.711,0,37.5,16.789,37.5,37.5v0C495,268.211,478.211,285,457.5,285z"/>
		<path id="XMLID_119_" style="fill:none;stroke:#000000;stroke-width:30;stroke-miterlimit:10;" d="M52.5,285H75v-75H52.5&#10;&#9;&#9;&#9;C31.789,210,15,226.789,15,247.5v0C15,268.211,31.789,285,52.5,285z"/>
	</g>
</g>















</svg>
