<?xml version="1.0" encoding="UTF-8"?>
<svg xmlns="http://www.w3.org/2000/svg" xmlns:xlink="http://www.w3.org/1999/xlink" version="1.1" id="Capa_1" x="0px" y="0px" viewBox="0 0 512.971 512.971" style="enable-background:new 0 0 512.971 512.971;" xml:space="preserve" width="512" height="512">
<g>
	<g>
		
			<line style="fill:none;stroke:#000000;stroke-width:30;stroke-miterlimit:10;" x1="214.052" y1="186.191" x2="214.052" y2="235.625"/>
		
			<line style="fill:none;stroke:#000000;stroke-width:30;stroke-miterlimit:10;" x1="297.948" y1="186.191" x2="297.948" y2="235.625"/>
	</g>
	<g>
		<path style="fill:none;stroke:#000000;stroke-width:30;stroke-miterlimit:10;" d="M345.694,447.621L345.694,447.621&#10;&#9;&#9;&#9;c-57.289,24.486-122.098,24.486-179.387,0l0,0c-53.147-22.716-87.621-74.942-87.621-132.74V224.3&#10;&#9;&#9;&#9;c0-97.928,79.386-177.314,177.314-177.314h0c97.928,0,177.314,79.386,177.314,177.314v90.582&#10;&#9;&#9;&#9;C433.315,372.679,398.84,424.905,345.694,447.621z"/>
		<path style="fill:none;stroke:#000000;stroke-width:30;stroke-miterlimit:10;" d="M78.685,337.002h-3.878&#10;&#9;&#9;&#9;C41.777,337.002,15,310.225,15,277.194v-16.917c0-17.586,14.256-31.843,31.843-31.843h0c17.586,0,31.843,14.256,31.843,31.843&#10;&#9;&#9;&#9;V337.002z"/>
		<path style="fill:none;stroke:#000000;stroke-width:30;stroke-miterlimit:10;" d="M434.286,337.002h3.878&#10;&#9;&#9;&#9;c33.031,0,59.807-26.777,59.807-59.807v-16.917c0-17.586-14.256-31.843-31.843-31.843h0c-17.586,0-31.843,14.256-31.843,31.843&#10;&#9;&#9;&#9;V337.002z"/>
	</g>
	<path style="fill:none;stroke:#000000;stroke-width:30;stroke-miterlimit:10;" d="M226.622,337.146h-42.343&#10;&#9;&#9;c-24.501,0-44.363-19.862-44.363-44.363v-15.147h86.706c16.433,0,29.755,13.322,29.755,29.755v0&#10;&#9;&#9;C256.376,323.824,243.055,337.146,226.622,337.146z"/>
	<path style="fill:none;stroke:#000000;stroke-width:30;stroke-miterlimit:10;" d="M328.474,337.146h-42.344&#10;&#9;&#9;c-16.433,0-29.755-13.322-29.755-29.755v0c0-16.433,13.322-29.755,29.755-29.755h86.706v15.147&#10;&#9;&#9;C372.837,317.284,352.975,337.146,328.474,337.146z"/>
	<path style="fill:none;stroke:#000000;stroke-width:30;stroke-miterlimit:10;" d="M309.274,335.672&#10;&#9;&#9;c0,29.668-24.05,53.718-53.718,53.718h0c-29.668,0-53.718-24.05-53.718-53.718"/>
</g>















</svg>
