<?xml version="1.0" encoding="UTF-8"?>
<svg xmlns="http://www.w3.org/2000/svg" xmlns:xlink="http://www.w3.org/1999/xlink" version="1.1" id="Capa_1" x="0px" y="0px" viewBox="0 0 512 512" style="enable-background:new 0 0 512 512;" xml:space="preserve" width="512" height="512">
<line style="fill:none;stroke:#000000;stroke-width:30;stroke-miterlimit:10;" x1="150.5" y1="376.5" x2="60.25" y2="376.5"/>
<line style="fill:none;stroke:#000000;stroke-width:30;stroke-miterlimit:10;" x1="331.25" y1="376.5" x2="180.75" y2="376.5"/>
<line style="fill:none;stroke:#000000;stroke-width:30;stroke-miterlimit:10;" x1="451.75" y1="376.5" x2="361.5" y2="376.5"/>
<rect x="15" y="75.25" style="fill:none;stroke:#000000;stroke-width:30;stroke-miterlimit:10;" width="482" height="361.5"/>
<polyline style="fill:none;stroke:#000000;stroke-width:30;stroke-miterlimit:10;" points="75.25,75.25 105.375,135.5 497,135.5 "/>
<line style="fill:none;stroke:#000000;stroke-width:30;stroke-miterlimit:10;" x1="195.75" y1="135.5" x2="165.625" y2="75.25"/>
<path style="fill:none;stroke:#000000;stroke-width:30;stroke-miterlimit:10;" d="M312.787,256h-34.662v-51.176h34.662&#10;&#9;c14.132,0,25.588,11.456,25.588,25.588v0C338.375,244.544,326.919,256,312.787,256z"/>
<path style="fill:none;stroke:#000000;stroke-width:30;stroke-miterlimit:10;" d="M312.787,307.175h-34.662V256h34.662&#10;&#9;c14.132,0,25.588,11.456,25.588,25.588v0C338.375,295.719,326.919,307.175,312.787,307.175z"/>
<path style="fill:none;stroke:#000000;stroke-width:30;stroke-miterlimit:10;" d="M203.751,307.175L203.751,307.175&#10;&#9;c-16.638,0-30.125-13.487-30.125-30.125v-42.101c0-16.638,13.487-30.125,30.125-30.125h0c16.638,0,30.125,13.487,30.125,30.125&#10;&#9;v42.101C233.876,293.688,220.388,307.175,203.751,307.175z"/>
<path style="fill:none;stroke:#000000;stroke-width:30;stroke-miterlimit:10;" d="M69.125,277.044&#10;&#9;c0,16.638,13.487,30.125,30.125,30.125h0c16.638,0,30.125-13.487,30.125-30.125v-72.212l-38.125,0"/>
<path style="fill:none;stroke:#000000;stroke-width:30;stroke-miterlimit:10;" d="M442.875,230.412&#10;&#9;c0-14.132-11.456-25.588-25.588-25.588h-9.075c-14.132,0-25.588,11.456-25.588,25.588v0c0,14.132,11.456,25.588,25.588,25.588h9.075&#10;&#9;c14.132,0,25.588,11.456,25.588,25.588v0c0,14.132-11.456,25.588-25.588,25.588h-9.075c-14.132,0-25.588-11.456-25.588-25.588"/>















</svg>
