<svg id="Capa_1" enable-background="new 0 0 512 512" height="512" viewBox="0 0 512 512" width="512" xmlns="http://www.w3.org/2000/svg"><g><g><path d="m512 256c0-68.38-26.629-132.667-74.98-181.02-48.353-48.351-112.64-74.98-181.02-74.98s-132.667 26.629-181.02 74.98c-48.351 48.353-74.98 112.64-74.98 181.02s26.629 132.667 74.98 181.02c48.353 48.351 112.64 74.98 181.02 74.98 23.815 0 47.341-3.271 70.031-9.711 15.583 6.259 32.584 9.711 50.379 9.711 74.765 0 135.59-60.825 135.59-135.59 0-17.794-3.452-34.796-9.711-50.379 6.44-22.689 9.711-46.216 9.711-70.031zm-256 226c-60.367 0-117.12-23.508-159.806-66.194s-66.194-99.439-66.194-159.806 23.508-117.12 66.194-159.806 99.439-66.194 159.806-66.194 117.12 23.508 159.806 66.194 66.194 99.439 66.194 159.806c0 10.97-.791 21.866-2.345 32.622-8.082-9.49-17.441-17.859-27.817-24.831.102-2.598.162-5.199.162-7.791 0-108.075-87.925-196-196-196s-196 87.925-196 196 87.925 196 196 196c2.591 0 5.193-.06 7.791-.162 6.972 10.375 15.341 19.735 24.831 27.816-10.757 1.555-21.653 2.346-32.622 2.346zm-15.181-105.59c0 15.924 2.768 31.212 7.834 45.418-37.517-1.642-71.839-15.792-98.89-38.379l23.905-23.905-21.213-21.213-23.905 23.905c-21.041-25.2-34.758-56.71-37.865-91.236h35.298v-30h-35.298c3.107-34.526 16.824-66.036 37.865-91.237l24.907 24.907 21.213-21.213-24.907-24.907c25.201-21.042 56.711-34.758 91.237-37.865v171.351l29.103 30.308c-18.325 23.124-29.284 52.338-29.284 84.066zm50.394-105.396-20.213-21.05v-159.279c82.123 7.391 147.189 74.835 150.829 157.968-14.207-5.066-29.494-7.834-45.418-7.834-32.249 0-61.899 11.324-85.198 30.195zm85.197 210.986c-58.223 0-105.591-47.367-105.591-105.59s47.368-105.591 105.591-105.591 105.59 47.369 105.59 105.591-47.367 105.59-105.59 105.59z"/><path d="m388.951 396.975 6.22-91.69h-37.318l6.219 91.69z"/></g><circle cx="376.437" cy="433.377" r="17.157"/></g></svg>