<svg xmlns="http://www.w3.org/2000/svg" width="31.67" height="31.67" viewBox="0 0 31.67 31.67"><path d="M21.34,30h-.309V55.794a.928.928,0,0,1-.928.928H4.021a.928.928,0,0,1-.928-.928V30H2.783A2.787,2.787,0,0,0,0,32.783V57.031a2.787,2.787,0,0,0,2.783,2.783H21.34a2.787,2.787,0,0,0,2.783-2.783V32.783A2.787,2.787,0,0,0,21.34,30Z" transform="translate(0 -28.144)" fill="#bdbdbd"/><path d="M141.495,3.711h-5.567A.928.928,0,0,1,135,2.783V2.165A2.165,2.165,0,0,1,137.165,0h3.093a2.165,2.165,0,0,1,2.165,2.165v.619A.928.928,0,0,1,141.495,3.711Z" transform="translate(-126.65)" fill="#bdbdbd"/><g transform="translate(4.948 1.856)"><path d="M157.013,318.1H158.5l-.743-1.968Z" transform="translate(-152.249 -298.437)" fill="#bdbdbd"/><path d="M92.68,30v.928A2.783,2.783,0,0,1,89.9,33.711H84.33a2.783,2.783,0,0,1-2.783-2.783V30H80V54.866H94.227V30ZM83.4,35.876h7.423a.928.928,0,0,1,0,1.856H83.4a.928.928,0,0,1,0-1.856Zm0,3.711h7.423a.928.928,0,0,1,0,1.856H83.4a.928.928,0,0,1,0-1.856ZM88.22,52.682a.772.772,0,0,1-1-.45l-.384-1.019H84.175l-.389,1.021a.773.773,0,1,1-1.445-.55l2.323-6.1.007-.017A.91.91,0,0,1,85.515,45h0a.91.91,0,0,1,.845.566l.008.021,2.3,6.1a.773.773,0,0,1-.45,1ZM91.134,46.1h-.449v.479a.773.773,0,0,1-1.546,0V46.1H88.66a.773.773,0,0,1,0-1.546h.479V44.1a.773.773,0,0,1,1.546,0v.449h.449a.773.773,0,1,1,0,1.546Z" transform="translate(-80 -30)" fill="#bdbdbd"/></g><g transform="translate(27.34 3.835)"><path d="M442,152h4.33v1.856H442Z" transform="translate(-442 -146.433)" fill="#bdbdbd"/><path d="M446.33,65.711V63.546A1.546,1.546,0,0,0,444.783,62h-1.237A1.546,1.546,0,0,0,442,63.546v2.165Z" transform="translate(-442 -62)" fill="#bdbdbd"/><g transform="translate(0 9.278)"><path d="M447.854,426.84,448.93,422h-3.963l1.076,4.84a.928.928,0,0,0,1.811,0Z" transform="translate(-444.783 -409.01)" fill="#bdbdbd"/><path d="M442,212h4.33v11.134H442Z" transform="translate(-442 -212)" fill="#bdbdbd"/></g></g></svg>