<?xml version="1.0" encoding="UTF-8" standalone="no"?>
<!-- Created with Inkscape (http://www.inkscape.org/) -->

<svg
   version="1.1"
   id="svg609"
   xml:space="preserve"
   width="682.66669"
   height="682.66669"
   viewBox="0 0 682.66669 682.66669"
   xmlns="http://www.w3.org/2000/svg"
   xmlns:svg="http://www.w3.org/2000/svg"><defs
     id="defs613"><clipPath
       clipPathUnits="userSpaceOnUse"
       id="clipPath623"><path
         d="M 0,512 H 512 V 0 H 0 Z"
         id="path621" /></clipPath></defs><g
     id="g615"
     transform="matrix(1.3333333,0,0,-1.3333333,0,682.66667)"><g
       id="g617"><g
         id="g619"
         clip-path="url(#clipPath623)"><g
           id="g625"
           transform="translate(376,347)"><path
             d="m 0,0 c 0,16.569 -13.432,30 -30,30 h -30 c -33.137,0 -60,26.863 -60,60 0,-33.137 -26.863,-60 -60,-60 h -30 c -16.568,0 -30,-13.431 -30,-30 -16.569,0 -30,-13.431 -30,-30 0,-16.569 13.431,-30 30,-30 0,-30.291 0,0 0,0 v -15 c 0,-52.897 39.115,-96.658 90,-103.937 V -210 c 0,-16.569 13.431,-30 30,-30 16.569,0 30,13.431 30,30 v 31.063 c 50.885,7.279 90,51.04 90,103.937 v 15 c 0,0 0,-30.354 0,0 16.569,0 30,13.431 30,30 C 30,-13.431 16.569,0 0,0 Z"
             style="fill:none;stroke:#000000;stroke-width:30;stroke-linecap:butt;stroke-linejoin:miter;stroke-miterlimit:10;stroke-dasharray:none;stroke-opacity:1"
             id="path627" /></g><g
           id="g629"
           transform="translate(226,137)"><path
             d="m 0,0 h -60 c -33.137,0 -60,-26.863 -60,-60 v -62 h 300 v 62 c 0,33.137 -26.863,60 -60,60 H 60"
             style="fill:none;stroke:#000000;stroke-width:30;stroke-linecap:butt;stroke-linejoin:miter;stroke-miterlimit:10;stroke-dasharray:none;stroke-opacity:1"
             id="path631" /></g><g
           id="g633"
           transform="translate(211,317)"><path
             d="M 0,0 H 30"
             style="fill:none;stroke:#000000;stroke-width:30;stroke-linecap:butt;stroke-linejoin:miter;stroke-miterlimit:10;stroke-dasharray:none;stroke-opacity:1"
             id="path635" /></g><g
           id="g637"
           transform="translate(271,317)"><path
             d="M 0,0 H 30"
             style="fill:none;stroke:#000000;stroke-width:30;stroke-linecap:butt;stroke-linejoin:miter;stroke-miterlimit:10;stroke-dasharray:none;stroke-opacity:1"
             id="path639" /></g><g
           id="g641"
           transform="translate(286,257)"><path
             d="m 0,0 c 0,-16.569 -13.432,-30 -30,-30 -16.568,0 -30,13.431 -30,30"
             style="fill:none;stroke:#000000;stroke-width:30;stroke-linecap:butt;stroke-linejoin:miter;stroke-miterlimit:10;stroke-dasharray:none;stroke-opacity:1"
             id="path643" /></g><g
           id="g645"
           transform="translate(176.1045,197)"><path
             d="m 0,0 h -40.104 c -49.707,0 -90,40.294 -90,90 v 30 c 0,99.411 80.588,180 180,180 h 60 c 99.411,0 180,-80.589 180,-180 V 90 c 0,-49.706 -40.294,-90 -90,-90 h -40.105"
             style="fill:none;stroke:#000000;stroke-width:30;stroke-linecap:butt;stroke-linejoin:miter;stroke-miterlimit:10;stroke-dasharray:none;stroke-opacity:1"
             id="path647" /></g><g
           id="g649"
           transform="translate(256,497)"><path
             d="M 0,0 V -60"
             style="fill:none;stroke:#000000;stroke-width:30;stroke-linecap:butt;stroke-linejoin:miter;stroke-miterlimit:10;stroke-dasharray:none;stroke-opacity:1"
             id="path651" /></g><g
           id="g653"
           transform="translate(256,62)"><path
             d="M 0,0 V 45"
             style="fill:none;stroke:#000000;stroke-width:30;stroke-linecap:butt;stroke-linejoin:miter;stroke-miterlimit:10;stroke-dasharray:none;stroke-opacity:1"
             id="path655" /></g></g></g></g></svg>
