<?xml version="1.0" encoding="UTF-8"?>
<svg xmlns="http://www.w3.org/2000/svg" xmlns:xlink="http://www.w3.org/1999/xlink" version="1.1" id="Capa_1" x="0px" y="0px" viewBox="0 0 510 510" style="enable-background:new 0 0 510 510;" xml:space="preserve" width="512" height="512">
<g>
	<g>
		<path style="fill:none;stroke:#000000;stroke-width:30;stroke-miterlimit:10;" d="M210,240c0,16.569-13.432,30-30,30&#10;&#9;&#9;&#9;s-30-13.431-30-30"/>
		<path style="fill:none;stroke:#000000;stroke-width:30;stroke-miterlimit:10;" d="M360,240c0,16.569-13.431,30-30,30&#10;&#9;&#9;&#9;s-30-13.431-30-30"/>
		<path style="fill:none;stroke:#000000;stroke-width:30;stroke-miterlimit:10;" d="M300,367c0,24.853-20.147,45-45,45&#10;&#9;&#9;&#9;s-45-20.147-45-45"/>
		<line style="fill:none;stroke:#000000;stroke-width:30;stroke-miterlimit:10;" x1="255" y1="285" x2="255" y2="330"/>
		<path style="fill:none;stroke:#000000;stroke-width:30;stroke-miterlimit:10;" d="M195.23,123.93&#10;&#9;&#9;&#9;c14.05,8.06,29.72,13.56,46.32,15.93l101.81,14.54c43.97,6.28,76.64,43.95,76.64,88.37V330c0,91.13-73.87,165-165,165&#10;&#9;&#9;&#9;c-45.56,0-86.82-18.47-116.67-48.33C108.47,416.82,90,375.56,90,330v-98.38c0-39.35,25.77-74.06,63.43-85.45&#10;&#9;&#9;&#9;C169.04,141.45,183.15,133.8,195.23,123.93c-28.48-16.33-50.26-43.2-59.42-75.92c-0.28-0.99-0.55-2-0.81-3.01"/>
		<path style="fill:none;stroke:#000000;stroke-width:30;stroke-miterlimit:10;" d="M351.92,463.55C432.69,452.84,495,383.7,495,300&#10;&#9;&#9;&#9;v-45c0-66.28-26.86-126.28-70.29-169.71S321.28,15,255,15c-43.52,0-84.33,11.58-119.52,31.82C63.48,88.25,15,165.96,15,255v45&#10;&#9;&#9;&#9;c0,83.7,62.31,152.84,143.08,163.55"/>
	</g>
</g>















</svg>
