<svg xmlns="http://www.w3.org/2000/svg" width="21.035" height="22.924" viewBox="0 0 21.035 22.924"><g transform="translate(-0.5 0)"><path d="M166.013,398.3a3.413,3.413,0,1,1-6.825,0l3.418-1.757Zm0,0" transform="translate(-151.583 -378.784)" fill="#1e3674"/><path d="M217.805,459.285a2.165,2.165,0,0,1-4.076,1.095.675.675,0,0,1,.53-1.095Zm0,0" transform="translate(-203.54 -438.721)" fill="#4f51bc"/><path d="M56.228,53.207,48.9,54.793,38.605,53.207a1.509,1.509,0,0,0,1.523-1.123c1.254-3.381-2.086-13.237,7.288-13.237S53.451,48.7,54.7,52.084a1.51,1.51,0,0,0,1.523,1.123Zm0,0" transform="translate(-36.399 -37.109)" fill="#4f51bc"/><path d="M21.535,361.265a1.706,1.706,0,0,1-1.706,1.706H2.206a1.706,1.706,0,0,1,0-3.412H19.829a1.706,1.706,0,0,1,1.706,1.706Zm0,0" transform="translate(0 -343.46)" fill="#1e3674"/><path d="M54.713,52.1h-9.16a1.748,1.748,0,0,1-1.747-1.8c.129-4.176-.537-11.353,3.55-11.432-11.217.058-4.047,14.359-8.743,14.359H56.236A1.51,1.51,0,0,1,54.713,52.1Zm0,0" transform="translate(-36.407 -37.119)" fill="#1e3674"/><path d="M126.726,361.265a1.706,1.706,0,0,1-1.706,1.706H112.327a1.706,1.706,0,1,1,0-3.412H125.02a1.706,1.706,0,0,1,1.706,1.706Zm0,0" transform="translate(-105.191 -343.46)" fill="#4f51bc"/><path d="M200.04,1.87c0-.043.005-.087.005-.131a1.739,1.739,0,0,0-3.479,0c0,.044,0,.088.005.131" transform="translate(-187.287)" fill="#1e3674"/><g transform="translate(0.652 1.194)"><path d="M360.253,32.98a.351.351,0,0,1-.351-.351,6.749,6.749,0,0,0-1.241-4.119,4.562,4.562,0,0,0-1.246-1.188.351.351,0,0,1,.34-.614,5.127,5.127,0,0,1,1.444,1.35,7.446,7.446,0,0,1,1.4,4.571.351.351,0,0,1-.351.351Zm0,0" transform="translate(-341.416 -26.665)" fill="#4f51bc"/><path d="M418.694,33.963a.351.351,0,0,1-.351-.351,3.715,3.715,0,0,0-1.383-3.167.351.351,0,0,1,.378-.591,4.394,4.394,0,0,1,1.706,3.758A.351.351,0,0,1,418.694,33.963Zm0,0" transform="translate(-398.313 -29.659)" fill="#4f51bc"/><path d="M38.718,32.977a.351.351,0,0,1-.351-.351,7.447,7.447,0,0,1,1.4-4.571,5.127,5.127,0,0,1,1.444-1.35.351.351,0,0,1,.34.614,4.565,4.565,0,0,0-1.245,1.188,6.748,6.748,0,0,0-1.241,4.119.351.351,0,0,1-.351.351Zm0,0" transform="translate(-36.823 -26.662)" fill="#4f51bc"/><path d="M4.238,33.961a.351.351,0,0,1-.351-.351,4.394,4.394,0,0,1,1.706-3.758.351.351,0,0,1,.378.591A3.717,3.717,0,0,0,4.588,33.61a.351.351,0,0,1-.351.351Zm0,0" transform="translate(-3.887 -29.657)" fill="#483c78"/></g></g></svg>