<?xml version="1.0" encoding="UTF-8" standalone="no"?>
<!-- Created with Inkscape (http://www.inkscape.org/) -->

<svg
   version="1.1"
   id="svg2079"
   xml:space="preserve"
   width="682.66669"
   height="682.66669"
   viewBox="0 0 682.66669 682.66669"
   xmlns="http://www.w3.org/2000/svg"
   xmlns:svg="http://www.w3.org/2000/svg"><defs
     id="defs2083"><clipPath
       clipPathUnits="userSpaceOnUse"
       id="clipPath2093"><path
         d="M 0,512 H 512 V 0 H 0 Z"
         id="path2091" /></clipPath></defs><g
     id="g2085"
     transform="matrix(1.3333333,0,0,-1.3333333,0,682.66667)"><g
       id="g2087"><g
         id="g2089"
         clip-path="url(#clipPath2093)"><g
           id="g2095"
           transform="translate(451.001,298)"><path
             d="m 0,0 h -136.001 v -225 c 0,-24.853 20.147,-45 45,-45 24.853,0 46,20.147 46,45 v 45"
             style="fill:none;stroke:#000000;stroke-width:30;stroke-linecap:butt;stroke-linejoin:miter;stroke-miterlimit:10;stroke-dasharray:none;stroke-opacity:1"
             id="path2097" /></g><g
           id="g2099"
           transform="translate(451,298)"><path
             d="M 0,0 C -24.853,0 -45,-20.147 -45,-45 V -180 H 46 V -45 C 46,-20.147 24.853,0 0,0 Z"
             style="fill:none;stroke:#000000;stroke-width:30;stroke-linecap:butt;stroke-linejoin:miter;stroke-miterlimit:10;stroke-dasharray:none;stroke-opacity:1"
             id="path2101" /></g><g
           id="g2103"
           transform="translate(360,28)"><path
             d="m 0,0 h -285 c -33.137,0 -60,26.863 -60,60 v 360 l 30,30 30,-30 30,30 30,-30 30,30 30,-30 30,30 30,-30 30,30 30,-30 V 270"
             style="fill:none;stroke:#000000;stroke-width:30;stroke-linecap:butt;stroke-linejoin:miter;stroke-miterlimit:10;stroke-dasharray:none;stroke-opacity:1"
             id="path2105" /></g><g
           id="g2107"
           transform="translate(120,88)"><path
             d="M 0,0 H 150"
             style="fill:none;stroke:#000000;stroke-width:30;stroke-linecap:butt;stroke-linejoin:miter;stroke-miterlimit:10;stroke-dasharray:none;stroke-opacity:1"
             id="path2109" /></g><g
           id="g2111"
           transform="translate(90,88)"><path
             d="M 0,0 H -30"
             style="fill:none;stroke:#000000;stroke-width:30;stroke-linecap:butt;stroke-linejoin:miter;stroke-miterlimit:10;stroke-dasharray:none;stroke-opacity:1"
             id="path2113" /></g><g
           id="g2115"
           transform="translate(120,148)"><path
             d="M 0,0 H 150"
             style="fill:none;stroke:#000000;stroke-width:30;stroke-linecap:butt;stroke-linejoin:miter;stroke-miterlimit:10;stroke-dasharray:none;stroke-opacity:1"
             id="path2117" /></g><g
           id="g2119"
           transform="translate(90,148)"><path
             d="M 0,0 H -30"
             style="fill:none;stroke:#000000;stroke-width:30;stroke-linecap:butt;stroke-linejoin:miter;stroke-miterlimit:10;stroke-dasharray:none;stroke-opacity:1"
             id="path2121" /></g><g
           id="g2123"
           transform="translate(195.0635,327)"><path
             d="m 0,0 c 0,16.568 -13.431,30.647 -30,30.647 -16.568,0 -30,-13.431 -30,-30 0,-16.568 13.432,-30 30,-30 16.569,0 30,-13.431 30,-30 0,-16.568 -13.431,-30 -30,-30 -16.568,0 -30,12.785 -30,29.353"
             style="fill:none;stroke:#000000;stroke-width:30;stroke-linecap:butt;stroke-linejoin:miter;stroke-miterlimit:10;stroke-dasharray:none;stroke-opacity:1"
             id="path2125" /></g><g
           id="g2127"
           transform="translate(165,402)"><path
             d="M 0,0 V -44.353"
             style="fill:none;stroke:#000000;stroke-width:30;stroke-linecap:butt;stroke-linejoin:miter;stroke-miterlimit:10;stroke-dasharray:none;stroke-opacity:1"
             id="path2129" /></g><g
           id="g2131"
           transform="translate(165,237.6475)"><path
             d="M 0,0 V -44.647"
             style="fill:none;stroke:#000000;stroke-width:30;stroke-linecap:butt;stroke-linejoin:miter;stroke-miterlimit:10;stroke-dasharray:none;stroke-opacity:1"
             id="path2133" /></g></g></g></g></svg>
