<?xml version="1.0" encoding="UTF-8" standalone="no"?>
<!-- Created with Inkscape (http://www.inkscape.org/) -->

<svg
   version="1.1"
   id="svg3039"
   xml:space="preserve"
   width="682.66669"
   height="682.66669"
   viewBox="0 0 682.66669 682.66669"
   xmlns="http://www.w3.org/2000/svg"
   xmlns:svg="http://www.w3.org/2000/svg"><defs
     id="defs3043"><clipPath
       clipPathUnits="userSpaceOnUse"
       id="clipPath3053"><path
         d="M 0,512 H 512 V 0 H 0 Z"
         id="path3051" /></clipPath></defs><g
     id="g3045"
     transform="matrix(1.3333333,0,0,-1.3333333,0,682.66667)"><g
       id="g3047"><g
         id="g3049"
         clip-path="url(#clipPath3053)"><g
           id="g3055"
           transform="translate(145.876,376)"><path
             d="m 0,0 h -100.876 c -16.568,0 -30,-13.432 -30,-30 0,-16.568 13.432,-30 30,-30 h 452 V 0 H 236.313"
             style="fill:none;stroke:#000000;stroke-width:30;stroke-linecap:butt;stroke-linejoin:miter;stroke-miterlimit:10;stroke-dasharray:none;stroke-opacity:1"
             id="path3057" /></g><g
           id="g3059"
           transform="translate(15,346)"><path
             d="m 0,0 v -301 c 0,-16.568 13.432,-30 30,-30 h 452 v 301"
             style="fill:none;stroke:#000000;stroke-width:30;stroke-linecap:butt;stroke-linejoin:miter;stroke-miterlimit:10;stroke-dasharray:none;stroke-opacity:1"
             id="path3061" /></g><g
           id="g3063"
           transform="translate(497,106)"><path
             d="m 0,0 h -181 c -33.137,0 -60,26.863 -60,60 0,33.137 26.863,60 60,60 H 0"
             style="fill:none;stroke:#000000;stroke-width:30;stroke-linecap:butt;stroke-linejoin:miter;stroke-miterlimit:10;stroke-dasharray:none;stroke-opacity:1"
             id="path3065" /></g><g
           id="g3067"
           transform="translate(166,196)"><path
             d="m 0,0 c 0,16.568 -13.432,29.999 -30,29.999 -16.568,0 -30,-13.432 -30,-30 0,-16.569 13.432,-30 30,-30 16.568,0 30,-13.432 30,-30 0,-16.569 -13.432,-30 -30,-30 -16.568,0 -30,13.431 -30,30"
             style="fill:none;stroke:#000000;stroke-width:30;stroke-linecap:butt;stroke-linejoin:miter;stroke-miterlimit:10;stroke-dasharray:none;stroke-opacity:1"
             id="path3069" /></g><g
           id="g3071"
           transform="translate(136,270.9985)"><path
             d="M 0,0 V -45"
             style="fill:none;stroke:#000000;stroke-width:30;stroke-linecap:butt;stroke-linejoin:miter;stroke-miterlimit:10;stroke-dasharray:none;stroke-opacity:1"
             id="path3073" /></g><g
           id="g3075"
           transform="translate(136,105.9985)"><path
             d="M 0,0 V -42.999"
             style="fill:none;stroke:#000000;stroke-width:30;stroke-linecap:butt;stroke-linejoin:miter;stroke-miterlimit:10;stroke-dasharray:none;stroke-opacity:1"
             id="path3077" /></g><g
           id="g3079"
           transform="translate(301,166)"><path
             d="M 0,0 H 30"
             style="fill:none;stroke:#000000;stroke-width:30;stroke-linecap:butt;stroke-linejoin:miter;stroke-miterlimit:10;stroke-dasharray:none;stroke-opacity:1"
             id="path3081" /></g><g
           id="g3083"
           transform="translate(90.376,316)"><path
             d="M 0,0 173.657,174.657 347.313,0"
             style="fill:none;stroke:#000000;stroke-width:30;stroke-linecap:butt;stroke-linejoin:miter;stroke-miterlimit:10;stroke-dasharray:none;stroke-opacity:1"
             id="path3085" /></g><g
           id="g3087"
           transform="translate(285.2461,388.0903)"><path
             d="m 0,0 c 11.716,-11.715 11.716,-30.71 0,-42.426 -11.716,-11.716 -30.711,-11.716 -42.427,0 -11.715,11.716 -11.715,30.711 0,42.426 C -30.711,11.716 -11.716,11.716 0,0 Z"
             style="fill:none;stroke:#000000;stroke-width:30;stroke-linecap:butt;stroke-linejoin:miter;stroke-miterlimit:10;stroke-dasharray:none;stroke-opacity:1"
             id="path3089" /></g><g
           id="g3091"
           transform="translate(192.8154,316)"><path
             d="m 0,0 c -2.979,10.182 -0.453,21.633 7.578,29.664 11.716,11.716 30.711,11.716 42.426,0 C 58.035,21.633 60.562,10.182 57.582,0"
             style="fill:none;stroke:#000000;stroke-width:30;stroke-linecap:butt;stroke-linejoin:miter;stroke-miterlimit:10;stroke-dasharray:none;stroke-opacity:1"
             id="path3093" /></g></g></g></g></svg>
