<?xml version="1.0" encoding="iso-8859-1"?>
<!-- Generator: Adobe Illustrator 19.0.0, SVG Export Plug-In . SVG Version: 6.00 Build 0)  -->
<svg version="1.1" id="Capa_1" xmlns="http://www.w3.org/2000/svg" xmlns:xlink="http://www.w3.org/1999/xlink" x="0px" y="0px"
	 viewBox="0 0 512.001 512.001" style="enable-background:new 0 0 512.001 512.001;" xml:space="preserve">
<g>
	<g>
		<path d="M442.346,338.529c-14.194-14.326-33.11-22.212-53.275-22.212c-0.02,0-0.042,0-0.062,0
			c-20.186,0.016-39.115,7.934-53.301,22.297l-30.374,30.753c-72.944-30.572-131.228-88.912-161.758-161.815l31.002-31.39
			c29.014-29.376,28.757-76.918-0.573-105.979L103.173,0H97C43.514,0,0,43.514,0,97c0,56.018,10.975,110.368,32.618,161.541
			c20.903,49.42,50.824,93.8,88.932,131.908c38.108,38.108,82.489,68.029,131.908,88.932C304.631,501.025,358.982,512,415,512
			c53.486,0,97-43.514,97.001-97v-6.172L442.346,338.529z M415,482C202.71,482,30,309.29,30,97c0-34.953,26.901-63.74,61.088-66.741
			l61.801,61.233c17.598,17.437,17.753,45.962,0.344,63.588l-44.689,45.249l3.443,9.02
			c33.281,87.194,102.221,156.694,189.143,190.679l11.605,4.537l44.318-44.871c8.511-8.617,19.868-13.368,31.98-13.378
			c0.013,0,0.025,0,0.037,0c12.098,0,23.449,4.732,31.965,13.327l60.707,61.269C478.74,455.099,449.953,482,415,482z"/>
	</g>
</g>
<g>
	<g>
		<path d="M437.02,74.982C388.667,26.63,324.38,0,256,0v30c124.617,0,226,101.383,226,226h30
			C512,187.62,485.371,123.333,437.02,74.982z"/>
	</g>
</g>
<g>
	<g>
		<path d="M256,90v30c74.991,0,136,61.009,136,136h30C422,164.467,347.533,90,256,90z"/>
	</g>
</g>
<g>
</g>
<g>
</g>
<g>
</g>
<g>
</g>
<g>
</g>
<g>
</g>
<g>
</g>
<g>
</g>
<g>
</g>
<g>
</g>
<g>
</g>
<g>
</g>
<g>
</g>
<g>
</g>
<g>
</g>
</svg>
