<?xml version="1.0" encoding="UTF-8"?>
<svg xmlns="http://www.w3.org/2000/svg" xmlns:xlink="http://www.w3.org/1999/xlink" version="1.1" id="Capa_1" x="0px" y="0px" viewBox="0 0 512 512" style="enable-background:new 0 0 512 512;" xml:space="preserve" width="512" height="512">
<g>
	<path style="fill:none;stroke:#000000;stroke-width:30;stroke-linecap:round;stroke-linejoin:round;stroke-miterlimit:10;" d="&#10;&#9;&#9;M270.19,437.4c-22.57,13.51-47.92,23.05-75.19,27.6c-47.27-7.88-88.79-30.78-120-63.32c-37.39-38.97-60-91.77-60-149.16V77&#10;&#9;&#9;c121-16,180.05-62,180.05-62S255,61,375,77v172.21"/>
	
		<circle style="fill:none;stroke:#000000;stroke-width:30;stroke-linecap:round;stroke-linejoin:round;stroke-miterlimit:10;" cx="195" cy="165" r="60"/>
	<path style="fill:none;stroke:#000000;stroke-width:30;stroke-linecap:round;stroke-linejoin:round;stroke-miterlimit:10;" d="&#10;&#9;&#9;M280.55,290.87c-0.22-0.24-0.46-0.48-0.7-0.72C258.14,268.43,228.14,255,195,255c-66.27,0-120,53.73-120,120v26.68V402"/>
	<path style="fill:none;stroke:#000000;stroke-width:30;stroke-linecap:round;stroke-linejoin:round;stroke-miterlimit:10;" d="&#10;&#9;&#9;M348.998,497h54.277l4.744-22.652c3.772-18.01,22.359-28.744,39.843-23.009l22,7.216L497,411.551l-17.246-15.441&#10;&#9;&#9;c-13.707-12.272-13.707-33.734,0-46.006L497,334.663l-27.138-47.005l-21.995,7.215c-17.482,5.734-36.068-4.996-39.842-23.003&#10;&#9;&#9;l-4.749-22.656h-54.277l-4.75,22.66c-3.775,18.009-22.365,28.74-39.848,23.001l-21.989-7.218l-27.139,47.005L272.52,350.1&#10;&#9;&#9;c13.713,12.273,13.713,33.741,0,46.014l-17.248,15.437l27.138,47.005l21.993-7.219c17.485-5.739,36.077,4.995,39.849,23.007&#10;&#9;&#9;L348.998,497z"/>
	
		<circle style="fill:none;stroke:#000000;stroke-width:30;stroke-linecap:round;stroke-linejoin:round;stroke-miterlimit:10;" cx="376.136" cy="373.107" r="45"/>
</g>















</svg>
