<?xml version="1.0" encoding="iso-8859-1"?>
<!-- Generator: Adobe Illustrator 19.0.0, SVG Export Plug-In . SVG Version: 6.00 Build 0)  -->
<svg version="1.1" id="Layer_1" xmlns="http://www.w3.org/2000/svg" xmlns:xlink="http://www.w3.org/1999/xlink" x="0px" y="0px"
	 viewBox="0 0 512 512" style="enable-background:new 0 0 512 512;" xml:space="preserve">
<g>
	<g>
		<path d="M291.883,391.499c-7.378,12.572-21.127,20.381-35.879,20.381s-28.499-7.809-35.879-20.381l-28.797,16.904
			c13.349,22.742,38.13,36.868,64.675,36.868c26.546,0,51.328-14.127,64.675-36.869L291.883,391.499z"/>
	</g>
</g>
<g>
	<g>
		<path d="M497.112,112.391L256,0L14.888,112.391l92.095,42.929c-18.008,12.305-33.596,30.861-44.437,53.669
			c-20.975,44.126-20.206,95.48,2.057,137.372l6.096,11.47l12.617-3.089c0.324-0.079,1.455-0.362,3.249-0.857
			C91.546,441.901,165.637,512,256.006,512c93.454,0,169.504-74.965,169.711-167.188c8.62-0.873,16.57-1.971,23.761-3.186
			l11.973-2.023l1.764-12.013c0.186-1.261,4.461-31.341-2.219-69.722c-2.796-16.063-7.11-31.231-12.859-45.366h26.155V123.03h-0.001
			L497.112,112.391z M93.923,112.391L256,36.842l162.077,75.55L256,187.941L93.923,112.391z M256.004,478.609
			c-75.17,0-136.324-60.191-136.324-134.175c0-0.738,0.013-1.478,0.026-2.218c20.611-8.711,46.232-22.357,66.559-42.178
			c13.58,6.648,38.167,17.573,70.432,27.228c52.026,15.568,98.079,20.056,135.603,19.476
			C391.042,419.666,330.391,478.609,256.004,478.609z M431.134,310.603c-64.863,8.362-124.425-3.315-163.955-15.055
			c-46.112-13.696-75.9-30.492-76.181-30.651l-12.079-6.902l-8.969,10.634c-22.926,27.185-61.415,42.939-81.495,49.709
			c-11.566-30.044-10.189-64.65,4.246-95.016c12.262-25.797,32.551-44.633,53.391-49.773l109.905,51.231l121.294-56.539
			c26.521,23.1,43.54,54.782,50.625,94.339C431.449,282.292,431.604,299.66,431.134,310.603z M440.899,196.735
			c-8.334-16.242-18.753-30.872-31.118-43.636l31.118-14.505V196.735z"/>
	</g>
</g>
<g>
</g>
<g>
</g>
<g>
</g>
<g>
</g>
<g>
</g>
<g>
</g>
<g>
</g>
<g>
</g>
<g>
</g>
<g>
</g>
<g>
</g>
<g>
</g>
<g>
</g>
<g>
</g>
<g>
</g>
</svg>
