<?xml version="1.0" encoding="UTF-8"?>
<svg xmlns="http://www.w3.org/2000/svg" xmlns:xlink="http://www.w3.org/1999/xlink" version="1.1" id="Capa_1" x="0px" y="0px" viewBox="0 0 512 512" style="enable-background:new 0 0 512 512;" xml:space="preserve" width="512" height="512">
<g>
	<path style="fill:none;stroke:#000000;stroke-width:30;stroke-linecap:round;stroke-linejoin:round;stroke-miterlimit:10;" d="&#10;&#9;&#9;M143.533,416.667H103.35c-10.652,0-20.862,4.23-28.39,11.759c-7.527,7.53-11.761,17.742-11.761,28.391c0,0.01,0,0.016,0,0.016&#10;&#9;&#9;V55.167c0-10.652,4.234-20.869,11.761-28.402C82.496,19.232,92.715,15,103.367,15c20.083,0,40.167,0,40.167,0V416.667z"/>
	<path style="fill:none;stroke:#000000;stroke-width:30;stroke-linecap:round;stroke-linejoin:round;stroke-miterlimit:10;" d="&#10;&#9;&#9;M448.8,497H103.35c-22.172,0-40.15-17.975-40.15-40.151c0-0.01,0-0.021,0-0.032c0-22.174,17.979-40.15,40.15-40.15&#10;&#9;&#9;c98.746,0,345.449,0,345.449,0V497z"/>
	
		<rect x="143.533" y="15.001" style="fill:none;stroke:#000000;stroke-width:30;stroke-linecap:round;stroke-linejoin:round;stroke-miterlimit:10;" width="305.267" height="401.667"/>
	
		<line style="fill:none;stroke:#000000;stroke-width:30;stroke-linecap:round;stroke-linejoin:round;stroke-miterlimit:10;" x1="223.867" y1="175.667" x2="368.467" y2="175.667"/>
	
		<line style="fill:none;stroke:#000000;stroke-width:30;stroke-linecap:round;stroke-linejoin:round;stroke-miterlimit:10;" x1="239.933" y1="256" x2="352.4" y2="256"/>
</g>















</svg>
