<?xml version="1.0" encoding="UTF-8"?>
<svg xmlns="http://www.w3.org/2000/svg" xmlns:xlink="http://www.w3.org/1999/xlink" version="1.1" id="Capa_1" x="0px" y="0px" viewBox="0 0 512 512" style="enable-background:new 0 0 512 512;" xml:space="preserve" width="512" height="512">
<path style="fill:none;stroke:#000000;stroke-width:30;stroke-miterlimit:10;" d="M376.503,171.577&#10;&#9;c0-16.613-13.468-30.081-30.081-30.081c-30.171,0-50.296-30.121-50.296-30.121c-26.044,19.554-57.732,30.124-90.299,30.123&#10;&#9;l-40.247-0.002c-16.613,0-30.081,13.468-30.081,30.081v0.097c0,16.613,13.468,30.081,30.081,30.081h0v16.141&#10;&#9;c0,49.925,40.472,90.397,90.397,90.397h0c49.925,0,90.397-40.472,90.397-90.397v-16.141h0.049c16.613,0,30.081-13.468,30.081-30.081&#10;&#9;V171.577z"/>
<path style="fill:none;stroke:#000000;stroke-width:30;stroke-miterlimit:10;" d="M300.294,290.698l10.471,48.047l118.618,35.034&#10;&#9;c19.427,5.738,34.525,21.085,39.944,40.603L492.267,497H19.733l22.939-82.618c5.419-19.519,20.517-34.865,39.944-40.603&#10;&#9;l118.618-35.034l10.466-48.024"/>
<line style="fill:none;stroke:#000000;stroke-width:30;stroke-miterlimit:10;" x1="256" y1="387.976" x2="201.234" y2="338.745"/>
<line style="fill:none;stroke:#000000;stroke-width:30;stroke-miterlimit:10;" x1="310.766" y1="338.745" x2="256" y2="387.976"/>
<polyline style="fill:none;stroke:#000000;stroke-width:30;stroke-miterlimit:10;" points="256,387.976 192.698,425.698 &#10;&#9;152.642,347.233 "/>
<polyline style="fill:none;stroke:#000000;stroke-width:30;stroke-miterlimit:10;" points="256,387.976 319.302,425.698 &#10;&#9;359.358,347.233 "/>
<line style="fill:none;stroke:#000000;stroke-width:30;stroke-miterlimit:10;" x1="117.637" y1="436.75" x2="117.637" y2="497"/>
<line style="fill:none;stroke:#000000;stroke-width:30;stroke-miterlimit:10;" x1="394.363" y1="436.75" x2="394.363" y2="497"/>
<path style="fill:none;stroke:#000000;stroke-width:30;stroke-miterlimit:10;" d="M147.526,147.515&#10;&#9;C122.528,84.883,166.784,15.584,230.778,15h50.443c68.53,0.572,106.957,75.41,83.252,132.515"/>















</svg>
