<?xml version="1.0" encoding="UTF-8"?>
<svg xmlns="http://www.w3.org/2000/svg" xmlns:xlink="http://www.w3.org/1999/xlink" version="1.1" id="Capa_1" x="0px" y="0px" viewBox="0 0 512 512" style="enable-background:new 0 0 512 512;" xml:space="preserve" width="512" height="512">
<g>
	<path style="fill:none;stroke:#000000;stroke-width:30;stroke-miterlimit:10;" d="M469.27,417.873&#10;&#9;&#9;c-57.702,0-104.478-46.777-104.478-104.479c0-7.846,0.871-15.488,2.511-22.84c-46.716,10.418-81.639,52.112-81.639,101.967&#10;&#9;&#9;c0,57.702,46.777,104.478,104.479,104.478c49.856,0,91.549-34.923,101.968-81.638C484.758,417.001,477.116,417.873,469.27,417.873z&#10;&#9;&#9;"/>
	<circle style="fill:none;stroke:#000000;stroke-width:30;stroke-miterlimit:10;" cx="122.449" cy="122.338" r="63.354"/>
	<line style="fill:none;stroke:#000000;stroke-width:30;stroke-miterlimit:10;" x1="122.449" y1="67.802" x2="122.449" y2="0"/>
	<line style="fill:none;stroke:#000000;stroke-width:30;stroke-miterlimit:10;" x1="83.886" y1="83.775" x2="35.942" y2="35.832"/>
	<line style="fill:none;stroke:#000000;stroke-width:30;stroke-miterlimit:10;" x1="67.912" y1="122.338" x2="0.11" y2="122.338"/>
	
		<line style="fill:none;stroke:#000000;stroke-width:30;stroke-miterlimit:10;" x1="83.886" y1="160.902" x2="35.942" y2="208.845"/>
	
		<line style="fill:none;stroke:#000000;stroke-width:30;stroke-miterlimit:10;" x1="122.449" y1="176.875" x2="122.449" y2="244.677"/>
	
		<line style="fill:none;stroke:#000000;stroke-width:30;stroke-miterlimit:10;" x1="161.012" y1="160.902" x2="208.955" y2="208.845"/>
	
		<line style="fill:none;stroke:#000000;stroke-width:30;stroke-miterlimit:10;" x1="176.985" y1="122.338" x2="244.787" y2="122.338"/>
	
		<line style="fill:none;stroke:#000000;stroke-width:30;stroke-miterlimit:10;" x1="161.012" y1="83.775" x2="208.955" y2="35.832"/>
	
		<line style="fill:none;stroke:#000000;stroke-width:30;stroke-miterlimit:10;" x1="429.787" y1="82.323" x2="82.433" y2="429.677"/>
</g>















</svg>
